<svg width="3410" height="825" xmlns="http://www.w3.org/2000/svg" xmlns:xlink="http://www.w3.org/1999/xlink" xml:space="preserve" overflow="hidden"><defs><clipPath id="clip0"><rect x="55" y="1348" width="3410" height="825"/></clipPath><linearGradient x1="1641.15" y1="2364.39" x2="1879.85" y2="1157.61" gradientUnits="userSpaceOnUse" spreadMethod="reflect" id="fill1"><stop offset="0" stop-color="#D16309"/><stop offset="0.63" stop-color="#B33333"/><stop offset="0.83" stop-color="#F79646"/><stop offset="1" stop-color="#DB5A0B"/></linearGradient></defs><g clip-path="url(#clip0)" transform="translate(-55 -1348)"><rect x="55" y="1348" width="3410" height="825" fill="#FFFFFF"/><path d="M3174.88 1870.13C3161.99 1874.5 3149.21 1879.5 3136.56 1885.13 3123.9 1890.77 3113.54 1896.69 3105.49 1902.9 3096.97 1909.34 3090.3 1917.56 3085.46 1927.56 3080.63 1937.56 3078.21 1949.34 3078.21 1962.91 3078.21 1980.85 3082.3 1993.84 3090.47 2001.89 3098.64 2009.93 3108.71 2013.96 3120.68 2013.96 3133.34 2013.96 3143.75 2011.37 3151.92 2006.2 3160.09 2001.02 3167.28 1994.64 3173.5 1987.06ZM2755.61 1870.13C2742.72 1874.5 2729.95 1879.5 2717.29 1885.13 2704.63 1890.77 2694.27 1896.69 2686.22 1902.9 2677.7 1909.34 2671.03 1917.56 2666.2 1927.56 2661.36 1937.56 2658.95 1949.34 2658.95 1962.91 2658.95 1980.85 2663.03 1993.84 2671.2 2001.89 2679.37 2009.93 2689.44 2013.96 2701.41 2013.96 2714.07 2013.96 2724.48 2011.37 2732.65 2006.2 2740.82 2001.02 2748.01 1994.64 2754.23 1987.06ZM1922.9 1733.18C1906.62 1733.18 1893.6 1737.66 1883.85 1746.6 1874.11 1755.55 1866.6 1767.13 1861.32 1781.36 1856.51 1794.43 1853.18 1809.74 1851.35 1827.29 1849.51 1844.84 1848.59 1863.13 1848.59 1882.17 1848.59 1907.18 1849.4 1927.88 1851 1944.28 1852.61 1960.68 1856.51 1977.14 1862.7 1993.66 1867.97 2007.88 1875.54 2019.12 1885.4 2027.38 1895.26 2035.64 1907.76 2039.77 1922.9 2039.77 1936.66 2039.77 1948.47 2035.92 1958.33 2028.24 1968.19 2020.55 1975.99 2009.26 1981.72 1994.35 1986.77 1981.5 1990.49 1965.9 1992.9 1947.55 1995.31 1929.2 1996.51 1907.87 1996.51 1883.55 1996.51 1867.49 1995.37 1849.14 1993.07 1828.5 1990.78 1807.85 1987.34 1791.56 1982.75 1779.64 1977.25 1765.18 1969.62 1753.83 1959.88 1745.57 1950.13 1737.31 1937.8 1733.18 1922.9 1733.18ZM908.028 1711.16 911.796 1716.32 911.796 1945.14C911.796 1968.77 916.325 1986.2 925.384 1997.44 934.442 2008.68 946.884 2014.3 962.708 2014.3 978.99 2014.3 993.61 2010.06 1006.57 2001.57 1019.52 1993.08 1028.98 1984.02 1034.95 1974.39L1034.95 1788.93C1034.95 1781.13 1033.46 1774.13 1030.48 1767.94 1027.49 1761.74 1023.14 1756.7 1017.4 1752.8 1013.28 1750.04 1007.37 1748.21 999.687 1747.29 992.005 1746.37 984.15 1745.69 976.124 1745.23L976.124 1720.11 1143.3 1711.16 1148.47 1716.32 1148.47 1981.96C1148.47 1989.99 1150.06 1996.81 1153.25 2002.43 1156.44 2008.05 1161.12 2012.81 1167.27 2016.71 1171.6 2019.46 1177.24 2021.36 1184.2 2022.39 1191.15 2023.42 1198.05 2024.05 1204.88 2024.28L1204.88 2049.4 1040.8 2059.38 1035.64 2054.56 1035.64 2009.49 1033.58 2009.49C1025.79 2016.6 1018.18 2023.54 1010.73 2030.3 1003.29 2037.07 994.416 2043.21 984.111 2048.71 972.433 2054.91 961.384 2059.49 950.963 2062.48 940.543 2065.46 925.371 2066.95 905.448 2066.95 870.869 2066.95 844.363 2056.51 825.928 2035.64 807.494 2014.76 798.277 1985.28 798.277 1947.21L798.277 1792.37C798.277 1783.42 796.567 1776.14 793.149 1770.52 789.731 1764.9 785.171 1759.91 779.47 1755.55 774.912 1752.11 768.986 1749.64 761.692 1748.15 754.398 1746.66 747.788 1745.69 741.861 1745.23L741.861 1720.11ZM2437.08 1707.38C2458.41 1707.38 2475.55 1713.97 2488.51 1727.16 2501.47 1740.35 2507.95 1757.39 2507.95 1778.26 2507.95 1795.69 2502.56 1811.01 2491.78 1824.2 2481 1837.39 2466.78 1843.98 2449.12 1843.98 2432.38 1843.98 2418.22 1839.75 2406.64 1831.3 2395.06 1822.85 2389.27 1810.4 2389.27 1793.95 2389.27 1785.96 2389.84 1779.74 2390.99 1775.28 2392.13 1770.83 2393.17 1766.66 2394.08 1762.78 2383.53 1763.23 2372.41 1766.87 2360.72 1773.69 2349.02 1780.51 2338.7 1789.6 2329.76 1800.97L2329.76 1989.87C2329.76 1997.9 2331.02 2004.55 2333.54 2009.83 2336.06 2015.11 2340.3 2019.23 2346.27 2022.22 2351.31 2024.74 2359.51 2026.86 2370.86 2028.58 2382.21 2030.3 2390.41 2031.28 2395.46 2031.51L2395.46 2056.63 2165.32 2056.63 2165.32 2031.51C2171.06 2031.05 2176.85 2030.42 2182.7 2029.61 2188.54 2028.81 2193.53 2027.72 2197.66 2026.35 2205 2023.82 2210.04 2019.92 2212.8 2014.65 2215.55 2009.37 2216.92 2002.49 2216.92 1994L2216.92 1793.74C2216.92 1785.49 2214.97 1778.09 2211.08 1771.55 2207.18 1765.01 2202.48 1759.79 2196.97 1755.89 2192.84 1753.14 2187.63 1750.85 2181.32 1749.01 2175.01 1747.18 2168.08 1745.92 2160.51 1745.23L2160.51 1720.11 2324.6 1711.16 2329.76 1716.32 2329.76 1766.22 2331.13 1766.22C2346.95 1747.87 2363.75 1733.47 2381.53 1723.03 2399.3 1712.6 2417.82 1707.38 2437.08 1707.38ZM1526.05 1706C1563.43 1706 1591.47 1716.61 1610.16 1737.83 1628.85 1759.05 1638.2 1787.21 1638.2 1822.3L1638.2 1990.91C1638.2 1999.39 1639.46 2006.16 1641.98 2011.21 1644.5 2016.25 1649.2 2020.27 1656.08 2023.25 1659.75 2024.85 1664.28 2026.46 1669.67 2028.07 1675.06 2029.67 1681.2 2030.82 1688.08 2031.51L1688.08 2056.63 1481.33 2056.63 1481.33 2031.51C1485.69 2031.05 1490.97 2030.48 1497.16 2029.79 1503.35 2029.1 1508.05 2027.95 1511.26 2026.35 1516.08 2023.82 1519.52 2020.15 1521.58 2015.34 1523.65 2010.52 1524.68 2003.41 1524.68 1994L1524.68 1832.97C1524.68 1809.57 1520.37 1791.97 1511.74 1780.15 1503.12 1768.34 1490.41 1762.43 1473.63 1762.43 1464.43 1762.43 1455.86 1763.81 1447.93 1766.56 1439.99 1769.31 1432.23 1773.33 1424.64 1778.6 1417.98 1783.19 1412.63 1787.89 1408.61 1792.71 1404.58 1797.53 1401.19 1801.77 1398.43 1805.44L1398.43 1990.22C1398.43 1998.25 1399.58 2004.96 1401.87 2010.35 1404.16 2015.74 1407.95 2019.81 1413.22 2022.56 1416.89 2024.63 1421.48 2026.46 1426.98 2028.07 1432.49 2029.67 1437.88 2030.82 1443.15 2031.51L1443.15 2056.63 1234 2056.63 1234 2031.51C1239.73 2031.05 1245.52 2030.42 1251.37 2029.61 1257.22 2028.81 1262.21 2027.72 1266.34 2026.35 1273.67 2023.82 1278.72 2019.92 1281.47 2014.65 1284.22 2009.37 1285.6 2002.49 1285.6 1994L1285.6 1793.74C1285.6 1786.63 1283.76 1779.64 1280.1 1772.75 1276.43 1765.87 1271.61 1760.25 1265.65 1755.89 1261.52 1753.14 1256.3 1750.85 1250 1749.01 1243.69 1747.18 1236.75 1745.92 1229.18 1745.23L1229.18 1720.11 1393.27 1711.16 1398.43 1716.32 1398.43 1766.22 1399.81 1766.22C1406.23 1760.48 1414.02 1753.6 1423.2 1745.57 1432.37 1737.54 1440.86 1731.01 1448.65 1725.96 1457.14 1720.45 1468.26 1715.75 1482.02 1711.85 1495.78 1707.95 1510.46 1706 1526.05 1706ZM3130.5 1705.31C3152.75 1705.31 3173.16 1706.63 3191.73 1709.27 3210.31 1711.91 3227.05 1717.36 3241.96 1725.61 3256.18 1733.64 3267.47 1745.29 3275.84 1760.54 3284.21 1775.79 3288.4 1795.69 3288.4 1820.24 3288.4 1846.16 3287.88 1876.9 3286.85 1912.45 3285.82 1948.01 3285.3 1971.41 3285.3 1982.65 3285.3 1992.97 3286.85 2001.11 3289.94 2007.08 3293.04 2013.04 3297.8 2017.51 3304.22 2020.5 3308.12 2022.33 3314.25 2023.42 3322.62 2023.77 3330.99 2024.11 3338.62 2024.28 3345.5 2024.28L3345.5 2049.4C3335.43 2053.76 3323.53 2057.77 3309.8 2061.44 3296.06 2065.11 3281.53 2066.95 3266.2 2066.95 3238.05 2066.95 3217.34 2062.76 3204.06 2054.39 3190.79 2046.02 3181.74 2034.03 3176.94 2018.43L3174.88 2018.43C3167.07 2026.23 3159.55 2032.88 3152.31 2038.39 3145.07 2043.89 3137.32 2048.6 3129.05 2052.5 3118.26 2057.54 3107.86 2061.33 3097.87 2063.85 3087.88 2066.37 3073.93 2067.64 3056.01 2067.64 3029.36 2067.64 3006.62 2059.77 2987.79 2044.03 2968.95 2028.29 2959.53 2007.45 2959.53 1981.49 2959.53 1966.55 2961.6 1953.86 2965.74 1943.41 2969.87 1932.95 2975.73 1923.71 2983.31 1915.67 2990.2 1908.31 2998.18 1902.22 3007.25 1897.4 3016.33 1892.58 3026.26 1888.1 3037.06 1883.96 3057.73 1876.38 3082.54 1868.52 3111.48 1860.36 3140.42 1852.2 3161.55 1844.91 3174.88 1838.47L3174.88 1805.44C3174.88 1799.71 3174.42 1792.14 3173.5 1782.73 3172.58 1773.33 3170.63 1765.41 3167.65 1758.99 3164.44 1751.65 3159.39 1745.46 3152.51 1740.41 3145.63 1735.36 3136.57 1732.84 3125.33 1732.84 3115.23 1732.84 3106.8 1734.27 3100.03 1737.14 3093.26 1740.01 3087.81 1742.93 3083.69 1745.92 3084.38 1750.5 3086.33 1757.5 3089.55 1766.91 3092.77 1776.31 3094.38 1785.37 3094.38 1794.09 3094.38 1797.99 3093.35 1802.86 3091.28 1808.71 3089.21 1814.56 3086.22 1819.21 3082.3 1822.65 3077.01 1827.23 3071.09 1830.79 3064.54 1833.31 3057.99 1835.84 3047.92 1837.1 3034.35 1837.1 3015.03 1837.1 3000.43 1832.45 2990.54 1823.16 2980.65 1813.87 2975.7 1801.77 2975.7 1786.86 2975.7 1774.02 2980.81 1762.49 2991.01 1752.28 3001.22 1742.07 3013.66 1733.64 3028.33 1726.99 3042.78 1720.11 3059.41 1714.78 3078.21 1710.99 3097.02 1707.21 3114.45 1705.31 3130.5 1705.31ZM2711.23 1705.31C2733.48 1705.31 2753.89 1706.63 2772.47 1709.27 2791.04 1711.91 2807.78 1717.36 2822.69 1725.61 2836.91 1733.64 2848.2 1745.29 2856.57 1760.54 2864.94 1775.79 2869.13 1795.69 2869.13 1820.24 2869.13 1846.16 2868.61 1876.9 2867.58 1912.45 2866.55 1948.01 2866.03 1971.41 2866.03 1982.65 2866.03 1992.97 2867.58 2001.11 2870.68 2007.08 2873.77 2013.04 2878.53 2017.51 2884.95 2020.5 2888.85 2022.33 2894.99 2023.42 2903.36 2023.77 2911.73 2024.11 2919.35 2024.28 2926.23 2024.28L2926.23 2049.4C2916.16 2053.76 2904.26 2057.77 2890.53 2061.44 2876.8 2065.11 2862.26 2066.95 2846.93 2066.95 2818.78 2066.95 2798.07 2062.76 2784.79 2054.39 2771.52 2046.02 2762.48 2034.03 2757.67 2018.43L2755.61 2018.43C2747.8 2026.23 2740.28 2032.88 2733.04 2038.39 2725.81 2043.89 2718.05 2048.6 2709.78 2052.5 2698.99 2057.54 2688.6 2061.33 2678.6 2063.85 2668.61 2066.37 2654.66 2067.64 2636.74 2067.64 2610.1 2067.64 2587.36 2059.77 2568.52 2044.03 2549.68 2028.29 2540.27 2007.45 2540.27 1981.49 2540.27 1966.55 2542.33 1953.86 2546.47 1943.41 2550.6 1932.95 2556.46 1923.71 2564.04 1915.67 2570.93 1908.31 2578.91 1902.22 2587.99 1897.4 2597.06 1892.58 2606.99 1888.1 2617.79 1883.96 2638.46 1876.38 2663.27 1868.52 2692.21 1860.36 2721.15 1852.2 2742.29 1844.91 2755.61 1838.47L2755.61 1805.44C2755.61 1799.71 2755.15 1792.14 2754.23 1782.73 2753.32 1773.33 2751.37 1765.41 2748.39 1758.99 2745.17 1751.65 2740.12 1745.46 2733.24 1740.41 2726.36 1735.36 2717.3 1732.84 2706.06 1732.84 2695.96 1732.84 2687.53 1734.27 2680.76 1737.14 2673.99 1740.01 2668.55 1742.93 2664.42 1745.92 2665.11 1750.5 2667.06 1757.5 2670.28 1766.91 2673.5 1776.31 2675.11 1785.37 2675.11 1794.09 2675.11 1797.99 2674.08 1802.86 2672.01 1808.71 2669.94 1814.56 2666.95 1819.21 2663.04 1822.65 2657.75 1827.23 2651.83 1830.79 2645.27 1833.31 2638.72 1835.84 2628.66 1837.1 2615.09 1837.1 2595.76 1837.1 2581.16 1832.45 2571.27 1823.16 2561.38 1813.87 2556.43 1801.77 2556.43 1786.86 2556.43 1774.02 2561.54 1762.49 2571.74 1752.28 2581.95 1742.07 2594.39 1733.64 2609.07 1726.99 2623.51 1720.11 2640.14 1714.78 2658.95 1710.99 2677.75 1707.21 2695.18 1705.31 2711.23 1705.31ZM1922.21 1705.31C1954.32 1705.31 1982.58 1709.73 2007.01 1718.56 2031.43 1727.39 2052.36 1739.84 2069.78 1755.89 2086.76 1771.72 2099.71 1790.65 2108.66 1812.67 2117.6 1834.69 2122.07 1858.55 2122.07 1884.24 2122.07 1909.7 2117.66 1933.73 2108.83 1956.32 2100 1978.92 2087.1 1998.25 2070.13 2014.3 2052.01 2031.51 2030.4 2044.7 2005.29 2053.87 1980.17 2063.05 1951.45 2067.64 1919.11 2067.64 1891.14 2067.64 1865.39 2063.62 1841.89 2055.59 1818.38 2047.56 1797.57 2035.52 1779.45 2019.46 1762.02 2004.09 1748.26 1985.11 1738.17 1962.52 1728.08 1939.92 1723.04 1914.63 1723.04 1886.65 1723.04 1859.12 1727.45 1834.63 1736.28 1813.18 1745.11 1791.74 1758.35 1772.64 1776.01 1755.89 1792.98 1739.84 1813.91 1727.39 1838.79 1718.56 1863.67 1709.73 1891.48 1705.31 1922.21 1705.31ZM432.774 1528.59 303.394 1528.94C347.784 1571.08 404.313 1625.46 436.565 1655.38 468.817 1685.29 488.353 1699.57 496.907 1708.44L503.908 1707.2C506.953 1703.85 512.64 1700.06 517.406 1695.34 522.172 1690.62 527.457 1685.39 532.505 1678.89 537.553 1672.39 543.492 1665.37 547.696 1656.37 551.899 1647.37 555.851 1635.19 557.727 1624.88 559.604 1614.57 559.785 1603.59 558.955 1594.51 558.124 1585.44 555.818 1577.13 552.743 1570.46 549.668 1563.78 545.922 1559.37 540.506 1554.47 535.09 1549.56 528.558 1544.66 520.246 1541.04 511.933 1537.41 505.208 1534.78 490.629 1532.7 476.051 1530.63 463.98 1529.22 432.774 1528.59ZM188.287 1447.5 452.01 1447.6C510.543 1448.44 517.976 1449.91 539.486 1452.51 560.995 1455.1 569.186 1458.11 581.067 1463.18 592.948 1468.24 600.798 1472.57 610.768 1482.91 620.739 1493.25 633.397 1510.13 640.89 1525.24 648.383 1540.35 653.075 1557.24 655.726 1573.59 658.376 1589.94 658.393 1607.95 656.795 1623.34 655.196 1638.74 652.754 1651.9 646.134 1665.96 639.514 1680.02 631.213 1692.16 617.074 1707.7 636.563 1718.13 633.433 1717.89 641.325 1723.86 649.216 1729.83 657.777 1736.69 664.424 1743.53 671.07 1750.36 676.437 1757.43 681.205 1764.88 685.973 1772.32 689.746 1778.29 693.032 1788.18 696.319 1798.07 699.205 1813.25 700.926 1824.22 702.648 1835.19 703.41 1841.42 703.364 1853.99 703.317 1866.57 702.766 1885.17 700.647 1899.67 698.528 1914.16 694.222 1929.94 690.648 1940.96 687.074 1951.98 683.97 1957.35 679.202 1965.77 674.434 1974.19 668.09 1983.3 662.04 1991.49 655.989 1999.68 649.523 2008.63 642.901 2014.9 636.279 2021.17 630.506 2023.99 622.305 2029.1 614.104 2034.21 601.643 2041.44 593.696 2045.55 585.749 2049.67 583.895 2050.45 574.624 2053.78 565.352 2057.11 559.6 2062.14 538.068 2065.53 516.536 2068.92 505.811 2073.49 445.431 2074.1 385.05 2074.71 205.34 2075.49 175.787 2069.19 190.736 2055.84 184.698 2060.42 189.438 2051.59 194.178 2042.76 197.065 2040.87 199.53 2034.98 201.995 2029.08 202.662 2022.46 204.229 2016.21 204.349 1985.41 204.469 1954.61 204.589 1923.81 204.787 1872.99 205.063 1803.6 205.202 1769.6 205.341 1735.61 206.065 1715.41 204.72 1700.48 203.374 1685.55 199.992 1685.97 197.127 1680.03 194.262 1674.1 188.37 1668.64 187.53 1664.88 186.689 1661.12 158.269 1627.32 192.086 1657.47 225.903 1687.62 353.045 1805.75 390.428 1845.77 409.017 1865.67 403.89 1858.03 413.284 1903.77L297.284 1799.27C295.876 1843.76 298.337 1890.72 298.337 1965.64 344.12 1965.64 363.678 1968.52 390.696 1967.3 417.714 1966.09 443.439 1972.51 460.444 1958.33 477.45 1944.15 504.489 1914.15 492.728 1882.22 480.967 1850.29 434.457 1812.89 389.878 1766.75 345.299 1720.6 260.986 1647.07 225.257 1605.34 189.527 1563.6 179.726 1547.92 175.5 1516.32L406.65 1742.62C458.242 1793.71 467.73 1803.9 485.05 1822.86 502.37 1841.83 504.252 1844.77 510.572 1856.42 516.892 1868.08 521.941 1881.86 522.969 1892.78 523.996 1903.69 521.451 1912.88 516.736 1921.91 512.021 1930.95 501.591 1939.72 494.678 1946.99 487.765 1954.26 470.148 1964.2 475.26 1965.55 480.373 1966.89 512.284 1959.43 525.353 1955.06 538.422 1950.7 545.861 1944.44 553.675 1939.35 561.49 1934.26 566.373 1931.23 572.24 1924.51 578.107 1917.78 584.864 1908.58 588.878 1899.01 592.893 1889.45 595.896 1877.21 596.328 1867.12 596.76 1857.04 594.131 1847.07 591.471 1838.48 588.812 1829.9 584.883 1823.17 580.371 1815.61 575.859 1808.05 570.125 1799.84 564.398 1793.12 558.673 1786.39 553.1 1780.96 546.015 1775.26 538.93 1769.56 531.201 1765.13 521.886 1758.92 512.571 1752.7 505.536 1750.25 490.125 1737.97 474.714 1725.68 461.43 1714.9 429.418 1685.21L298.055 1559.83C271.912 1534.48 237.921 1502.5 219.627 1483.78 201.332 1465.06 154.21 1449.76 188.287 1447.5Z" stroke="#404040" stroke-width="3.4375" stroke-linejoin="round" stroke-miterlimit="10" fill="url(#fill1)" fill-rule="evenodd"/></g></svg>